inDegrees=no
num_controls=7
num_derivatives=13
num_iterations=53
num_multipliers=7
num_parameters=0
num_slacks=7
num_states=26
objective=0.432061
objective_accelerations=0.052335
objective_balance=0.006894
objective_effort=0.033179
objective_height=0.338503
objective_ligament=0.001151
solver_duration=690.842373
status=Solve_Succeeded
success=true
DataType=double
version=3
OpenSimVersion=4.5
endheader
time	/jointset/ground_pelvis/pelvis_tilt/value	/jointset/ground_pelvis/pelvis_tx/value	/jointset/ground_pelvis/pelvis_ty/value	/jointset/hip_l/hip_flexion_l/value	/jointset/hip_l/hip_adduction_l/value	/jointset/hip_l/hip_rotation_l/value	/jointset/back/lumbar_extension/value	/jointset/patellofemoral_l/patellar_flexion_l/value	/jointset/knee_l/knee_flexion_l/value	/jointset/knee_l/knee_adduction_l/value	/jointset/knee_l/knee_rotation_l/value	/jointset/ankle_l/ankle_angle_l/value	/jointset/subtalar_l/subtalar_angle_l/value	/jointset/ground_pelvis/pelvis_tilt/speed	/jointset/ground_pelvis/pelvis_tx/speed	/jointset/ground_pelvis/pelvis_ty/speed	/jointset/hip_l/hip_flexion_l/speed	/jointset/hip_l/hip_adduction_l/speed	/jointset/hip_l/hip_rotation_l/speed	/jointset/back/lumbar_extension/speed	/jointset/patellofemoral_l/patellar_flexion_l/speed	/jointset/knee_l/knee_flexion_l/speed	/jointset/knee_l/knee_adduction_l/speed	/jointset/knee_l/knee_rotation_l/speed	/jointset/ankle_l/ankle_angle_l/speed	/jointset/subtalar_l/subtalar_angle_l/speed	/forceset/tau_hip_flexion_l	/forceset/tau_hip_adduction_l	/forceset/tau_hip_rotation_l	/forceset/tau_knee_flexion_l	/forceset/tau_ankle_angle_l	/forceset/tau_subtalar_angle_l	/forceset/tau_lumbar_extension	lambda_cid13_p0	lambda_cid13_p1	lambda_cid13_p2	lambda_cid13_p3	lambda_cid13_p4	lambda_cid13_p5	lambda_cid14_p0	/jointset/ground_pelvis/pelvis_tilt/accel	/jointset/ground_pelvis/pelvis_tx/accel	/jointset/ground_pelvis/pelvis_ty/accel	/jointset/hip_l/hip_flexion_l/accel	/jointset/hip_l/hip_adduction_l/accel	/jointset/hip_l/hip_rotation_l/accel	/jointset/back/lumbar_extension/accel	/jointset/patellofemoral_l/patellar_flexion_l/accel	/jointset/knee_l/knee_flexion_l/accel	/jointset/knee_l/knee_adduction_l/accel	/jointset/knee_l/knee_rotation_l/accel	/jointset/ankle_l/ankle_angle_l/accel	/jointset/subtalar_l/subtalar_angle_l/accel	gamma_cid13_p0	gamma_cid13_p1	gamma_cid13_p2	gamma_cid13_p3	gamma_cid13_p4	gamma_cid13_p5	gamma_cid14_p0
0.5	-0.3679334638814992	-0.03721229573294397	0.7619511392692117	1.208053265766959	-0.305158415674347	0.002204829714553341	-0.3159820693704583	0.8075966490111549	0.8075966490116117	-0.1699624759478077	0.1703501751119963	0.1472264742520971	-0.02301879087913084	-0.5084693187881707	-0.1816891465508823	-0.527271329056251	2.243514259492827	0.007811901946644007	0.7404833438239207	-0.62844416309474	2.120327438982043	2.120327438982253	-0.02135845189120639	0.01095840382916423	0.5120953945890793	0.09001103451410361	-0.2035497281641945	0.06753438843107318	-0.02504720936374915	-0.2427025726634859	0.1072626777537119	-0.002535045271548374	0.1948779275052421	-4.650448854858566	0.8452780309676344	0.6849631070466974	-1.899872965502654	-602.4248732534484	-17.49072224202553	-21.13686112867078	0.7362196584950612	0.6067147536587734	-0.4454789015321755	-1.521007287249069	0.6375216795556895	-0.2629491810020583	1.547157224804136	-1.257039461487694	-1.257039461487708	-0.2407436166257247	0.03303979525230689	-0.5074266161026473	0.6401129506386452	-4.252547388100146e-07	-9.019245706424123e-07	2.355714207341962e-06	2.032401425537441e-07	-4.863559059571732e-07	-3.09432939312474e-07	-4.314374291006979e-07
0.51	-0.372980086602437	-0.03899861653798169	0.7566573350902702	1.230408383303247	-0.305049604707044	0.009595516995496168	-0.3221888800516086	0.8287338129510995	0.8287338129511855	-0.1701897221859709	0.1704625763702515	0.1523208447687612	-0.02208804615628378	-0.5007715809700221	-0.1755580180776292	-0.5313716968316302	2.227192017567372	0.01396199111742249	0.7374120750940861	-0.6128485531370631	2.106833072720558	2.106833072720504	-0.02390548815364113	0.01160627317136553	0.5067079666606759	0.09615812251408593	-0.2106581405576895	0.06774848202803954	-0.02506098876514129	-0.2451632280727142	0.1053825349797309	-0.001947679514794897	0.2006924510787255	-5.496341519050281	0.9125079237582642	0.475250648749374	-1.590650981037063	-607.2171136847044	-17.37982308599926	-19.83533273038365	0.7990580311955253	0.6189001734460137	-0.3747365501782782	-1.735467613400746	0.60525819081776	-0.3659031440257594	1.576175881252729	-1.436393057998196	-1.436393058038273	-0.2339489984799764	0.09285902655187314	-0.5650131591967601	0.6049094478422974	-3.900501099117521e-07	-8.058580018044291e-07	2.219660281745493e-06	1.927399546689119e-07	-4.448951027015066e-07	-2.320951977566141e-07	-4.030775737557945e-07
0.52	-0.3779472305076673	-0.04072310840243345	0.7513260430666523	1.252590751426551	-0.3048789917170341	0.01694815410407335	-0.3282376520331995	0.8497278816586372	0.8497278816582162	-0.1704368918602771	0.1705838960264055	0.1573592185505442	-0.02109525000880412	-0.492573555642895	-0.1693233584336895	-0.5347688979919537	2.208964376913623	0.02017230648741514	0.7328733093622067	-0.5968364231791018	2.091708392478372	2.091708392478054	-0.02534313911321051	0.0127420834275038	0.5008960476128123	0.1024213194406447	-0.2177665529517024	0.06796257562475012	-0.02507476816681833	-0.2476238834819224	0.1035023922057453	-0.00136031375833282	0.2065069746517217	-6.348412822995686	0.9760868359737563	0.2715279500170104	-1.293628706405129	-612.1071662421822	-17.35591724069883	-18.5324016140154	0.8362771602892897	0.6274209877966795	-0.3048455785209022	-1.902087032908244	0.6495669193984797	-0.5564485814109471	1.630461224860765	-1.583102257628043	-1.583102257628068	-0.01886655605285702	0.1306279780397887	-0.5923248399938902	0.6633347359539589	-3.620553956198219e-07	-6.693212096903174e-07	2.086694984747936e-06	1.899839546014852e-07	-4.111434546477408e-07	-1.572381056845364e-07	-3.729741258359611e-07
0.53	-0.382830043182949	-0.04238482843531757	0.7459643173947248	1.274581574367493	-0.3046460846342441	0.02425004656227716	-0.3341243771173915	0.8705624502851663	0.8705624502847176	-0.1706941201600693	0.1707174384247132	0.1623373572909474	-0.02003938039463145	-0.4839122664647472	-0.1630117151290706	-0.5374550345907406	2.188890453842299	0.02639240652829557	0.727460986951291	-0.5804626123644084	2.074913859363184	2.074913859363416	-0.02608463878051036	0.01391284737944683	0.4946546967855052	0.1087385929431932	-0.2246389685958166	0.06793502617581136	-0.02502309893580008	-0.2502293681881622	0.1017478394228961	-0.0009179615959825671	0.2120954293652492	-7.165148770876848	1.099592129563626	0.05467012680503197	-0.9397773182701433	-616.9476085036351	-17.27019686563026	-17.23116258725862	0.8925277417188258	0.634413662789346	-0.2323961128038989	-2.106552104275438	0.6054852209785359	-0.5405680135819454	1.647738204275564	-1.771278427696453	-1.771278427614526	-0.09914490745698464	0.1018588999098722	-0.651587333704453	0.613680639302577	-3.345503752345158e-07	-5.441789532820528e-07	1.974702386300747e-06	1.890607533228674e-07	-3.80251484641162e-07	-8.227944419344423e-08	-3.457872663581974e-07
0.54	-0.3876239483774368	-0.04398315650296081	0.7405793506743642	1.296362356645622	-0.3043515258161364	0.0314964270078122	-0.3398459846545556	0.8912203436628162	0.8912203436622107	-0.1709582341036239	0.1708610001216725	0.1672507730971567	-0.01892078664905394	-0.4747920594808107	-0.1566449653855141	-0.5394171076789355	2.166956244369692	0.0325026535510405	0.721770906834402	-0.5638129137694813	2.056373342678772	2.056373342679553	-0.02672026786336018	0.01474594317694894	0.4879514607740299	0.1149661457216444	-0.2315113842404631	0.06790747672671396	-0.02497142970554599	-0.2528348528943076	0.09999328664008843	-0.0004756094338027824	0.217683884078249	-7.988535080600303	1.220030590701388	-0.156864310558908	-0.5953401030399054	-621.8904044082115	-17.26447500353819	-15.93597345712677	0.9280607214456315	0.6384422755847881	-0.1600328764023815	-2.274144313165278	0.6275963157712938	-0.6120001226055362	1.685638780907364	-1.93229897147304	-1.932298971473071	0.002307560836945917	0.06309434715169197	-0.6847018768266834	0.64539059113454	-3.075871438522831e-07	-4.316434172291935e-07	1.885913624547581e-06	1.901653294276126e-07	-3.525234137506199e-07	-7.208408025995565e-09	-3.218272706886811e-07
0.55	-0.3923245464159226	-0.0455176067038125	0.7351783858836534	1.31791483374357	-0.303996417503787	0.03868441376288446	-0.3453997407893355	0.9116843561208805	0.9116843561208953	-0.171228058175655	0.1710113747905971	0.1720949687789502	-0.01774037132070979	-0.4652616383567434	-0.1502414705773183	-0.5406537046360226	2.143246597167615	0.03848404620377702	0.7157649717947192	-0.546902213914858	2.036155306423317	2.036155306423605	-0.02724086465186941	0.01530747273319738	0.4808165505798856	0.121081316487659	-0.2381395357299557	0.0676516350348292	-0.02488397838946723	-0.2555541942488279	0.09841218072230987	-0.0001575104545714965	0.2230529168301184	-8.755386319675001	1.386840194387158	-0.3784278951241365	-0.249442581435312	-626.7252762425738	-17.21667277060907	-14.65144869014675	0.9753923643911351	0.6418818697543913	-0.08721871067435191	-2.463296990110031	0.5779305347140509	-0.6043772823831801	1.699200478774821	-2.1075705793777	-2.107570579452124	-0.07870618410373824	0.04908115385842281	-0.7385440867477486	0.589082934900034	-2.775088371106398e-07	-3.418509060267812e-07	1.786470944047203e-06	1.863080305115073e-07	-3.232389095383321e-07	5.811454226806729e-08	-2.975729504554708e-07
0.5600000000000001	-0.3969278683318805	-0.04698790619932309	0.7297687060023123	1.339221429956121	-0.3035825913059749	0.04581044374998185	-0.3507833069473832	0.9319379852911401	0.9319379852916528	-0.171502980792669	0.1711666445338229	0.176865683659595	-0.01649990376159263	-0.4553368349723783	-0.1438148243172943	-0.5411601258052945	2.117780067310233	0.04424623064412274	0.7093795532457131	-0.5297749184186779	2.014296685096086	2.014296685095881	-0.02773997685674928	0.01572495804934584	0.4732553005442085	0.1269765918762922	-0.2447676872200346	0.06739579334277776	-0.02479652707361994	-0.2582735356033138	0.09683107480457573	0.0001605885244759483	0.2284219495814068	-9.52854250433381	1.551197853132825	-0.5955375692742105	0.08469448049893685	-631.657702970239	-17.24032788782142	-13.38063112550185	1.006937173503857	0.6430725659509912	-0.01399771883920494	-2.625520844227273	0.5837546732930992	-0.6878968244700928	1.728957909218615	-2.260415985828392	-2.260415985828415	0.006604477562598177	0.03428549913180362	-0.7699698451324176	0.6014115156582951	-2.43692439937704e-07	-2.793500246449041e-07	1.674243561050171e-06	1.764964815703817e-07	-2.920866853399496e-07	1.117397895140675e-07	-2.729654407458279e-07
0.5700000000000001	-0.4014301160369179	-0.04839391168989923	0.7243576188878142	1.36026496328602	-0.3031116863619301	0.05286906444847116	-0.3559946784928549	0.9519652870975344	0.9519652870979947	-0.1717805368840045	0.1713259465341466	0.1815589371923262	-0.01520091168369943	-0.4450532476764956	-0.1373902530274868	-0.5409336755876563	2.090654837309548	0.04993729289792981	0.7021177011223309	-0.5124870956976093	1.990925063671969	1.990925063671898	-0.02756766022043793	0.01616857604316256	0.4653459092739514	0.1328333739864914	-0.2510988483901876	0.06703027191961841	-0.0246927407141922	-0.2610640122557137	0.09534644598204493	0.0003656844050788159	0.2335080109187749	-10.26742142127169	1.761342535812623	-0.8230454317592225	0.4514385572344418	-636.4342945753008	-17.22657871666959	-12.12611167771053	1.047969879949084	0.64158671695283	0.05945472541165894	-2.796813651456019	0.5619489989946574	-0.7795874205222428	1.730538700568245	-2.411275289859371	-2.411275289839902	0.05307123297631693	0.05404021317390392	-0.808832316204922	0.5793931266491223	-2.154136694865643e-07	-1.967127022614965e-07	1.561809481801937e-06	1.695168393974119e-07	-2.627382251433072e-07	1.577508559027351e-07	-2.481424294898227e-07
0.58	-0.4058277477945451	-0.04973578400629041	0.7189524939421644	1.381029086401112	-0.3025838373958407	0.05984821502287589	-0.3610328029617346	0.9717517246759683	0.9717517246762755	-0.1720502646136766	0.1714906127670798	0.1861716151027085	-0.01384303547111482	-0.434413645487739	-0.1309881894803049	-0.5399676920359679	2.061898024370096	0.05563503505456324	0.6934855284289794	-0.495125503095694	1.966123839481666	1.966123839481728	-0.02617430453168994	0.01679780458369451	0.4571401760744381	0.1387534188146455	-0.2574300095609426	0.06666475049637353	-0.02458895435561098	-0.2638544889079971	0.09386181715959961	0.0005707802856019498	0.2385940722555254	-11.01270163175421	1.969682488039343	-1.046922558931791	0.8073886680012168	-641.3080355963209	-17.27688978128091	-10.89010322334633	1.078140152077359	0.6385710174264388	0.1339089479709981	-2.951837431981676	0.5850906538582925	-0.9619609384637967	1.74371188538791	-2.546336539065793	-2.546336539065987	0.2508122880497212	0.07140760847495382	-0.8292382309827954	0.614064059249312	-1.943466919754384e-07	-8.785117764353968e-08	1.449106216738185e-06	1.662252618527378e-07	-2.357388529489312e-07	1.938457797795277e-07	-2.230387650571599e-07
